<?xml version="1.0" encoding="UTF-8"?>
<svg id="_图层_1" data-name="图层 1" xmlns="http://www.w3.org/2000/svg" viewBox="0 0 141.73 141.73">
  <defs>
    <style>
      .cls-1 {
        fill: #fff;
      }

      .cls-2 {
        fill: #262727;
      }
    </style>
  </defs>
  <circle class="cls-2" cx="70.87" cy="70.87" r="67.19"/>
  <path class="cls-1" d="M38.25,85.77h-6.63v24.35h23.95v-6.63h-17.32v-17.72Zm-6.63-29.8h6.63v-17.72h17.32v-6.63H31.62v24.35Zm71.87,47.52h-18.12v6.63h24.75v-24.35h-6.63v17.72ZM85.37,31.62v6.63h18.12v17.72h6.63V31.62h-24.75Z"/>
  <path class="cls-1" d="M62.58,94.84c-3.51,0-6.41-1-8.69-2.99-2.28-1.99-3.43-4.8-3.43-8.43,0-2.28,.5-4.32,1.49-6.1,.99-1.79,2.65-3.38,4.96-4.79,2.31-1.41,5.4-2.66,9.27-3.78,2.46-.76,5.04-1.49,7.73-2.2,2.69-.7,5.21-1.32,7.55-1.84v2.2c-2.34,.59-4.71,1.22-7.11,1.89-2.4,.67-4.6,1.39-6.59,2.15-3.75,1.35-6.4,2.96-7.95,4.83-1.55,1.87-2.33,4.04-2.33,6.5,0,2.69,.75,4.74,2.24,6.15,1.49,1.41,3.47,2.11,5.93,2.11,1.35,0,2.66-.26,3.95-.79,1.29-.53,2.75-1.43,4.39-2.72,1.64-1.29,3.57-3.04,5.8-5.27l.79,4.13h-2.11c-1.82,1.93-3.53,3.57-5.14,4.92-1.61,1.35-3.26,2.36-4.96,3.03-1.7,.67-3.63,1.01-5.8,1.01Zm23.45-.09c-2.64,0-4.61-.89-5.93-2.68-1.32-1.79-2.06-4.23-2.24-7.33v-22.75c0-3.28-.35-5.81-1.05-7.6-.7-1.79-1.79-3.03-3.25-3.73-1.46-.7-3.37-1.05-5.71-1.05-1.7,0-3.4,.25-5.09,.75-1.7,.5-3.51,1.27-5.45,2.33l3.78-2.37-1.41,6.94c-.23,1.58-.72,2.69-1.45,3.34-.73,.64-1.65,.97-2.77,.97-2.11,0-3.4-1.05-3.86-3.16,.88-3.57,2.9-6.38,6.06-8.43,3.16-2.05,7.2-3.07,12.12-3.07s8.88,1.22,11.37,3.64c2.49,2.43,3.73,6.37,3.73,11.81v21.69c0,2.75,.32,4.61,.97,5.58s1.55,1.45,2.72,1.45c.76,0,1.43-.16,2.02-.48,.58-.32,1.23-.86,1.93-1.62l1.41,1.32c-.94,1.52-2.06,2.65-3.38,3.38-1.32,.73-2.83,1.1-4.52,1.1Z"/>
</svg>