<?xml version="1.0" encoding="UTF-8"?>
<svg id="_图层_2" data-name="图层 2" xmlns="http://www.w3.org/2000/svg" viewBox="0 0 115.58 115.58">
  <defs>
    <style>
      .cls-1 {
        fill: #fff;
      }

      .cls-2 {
        fill: #262727;
      }

      .cls-3 {
        fill: #efefef;
      }
    </style>
  </defs>
  <g id="_图层_3" data-name="图层 3">
    <g>
      <rect class="cls-2" width="115.58" height="115.58"/>
      <path class="cls-1" d="M97.93,97.93H17.65V17.65H97.93V97.93Zm-76.54-3.74H94.19V21.39H21.39V94.19Z"/>
      <rect class="cls-2" x="38.89" y="10.4" width="37.8" height="94.77"/>
      <rect class="cls-2" x="38.89" y="10.4" width="37.8" height="94.77" transform="translate(115.58 0) rotate(90)"/>
      <g>
        <path class="cls-3" d="M28.04,70.38c-1.87,0-3.42-.53-4.64-1.59-1.22-1.06-1.83-2.56-1.83-4.5,0-1.22,.26-2.3,.8-3.26,.53-.95,1.41-1.8,2.65-2.55,1.23-.75,2.88-1.42,4.94-2.01,1.31-.41,2.69-.8,4.12-1.17,1.44-.38,2.78-.7,4.03-.98v1.17c-1.25,.31-2.51,.65-3.79,1.01-1.28,.36-2.45,.74-3.51,1.15-2,.72-3.41,1.58-4.24,2.58-.83,1-1.24,2.16-1.24,3.47,0,1.44,.4,2.53,1.19,3.28,.8,.75,1.85,1.12,3.16,1.12,.72,0,1.42-.14,2.11-.42,.69-.28,1.47-.76,2.34-1.45,.87-.69,1.9-1.62,3.09-2.81l.42,2.2h-1.12c-.97,1.03-1.88,1.91-2.74,2.62-.86,.72-1.74,1.26-2.65,1.62-.91,.36-1.94,.54-3.09,.54Zm12.51-.05c-1.41,0-2.46-.48-3.16-1.43-.7-.95-1.1-2.26-1.19-3.91v-12.13c0-1.75-.19-3.1-.56-4.05-.38-.95-.95-1.62-1.73-1.99-.78-.37-1.8-.56-3.04-.56-.91,0-1.81,.13-2.72,.4-.91,.27-1.87,.68-2.9,1.24l2.01-1.26-.75,3.7c-.12,.84-.38,1.44-.77,1.78-.39,.34-.88,.51-1.48,.51-1.12,0-1.81-.56-2.06-1.69,.47-1.91,1.55-3.4,3.23-4.5,1.69-1.09,3.84-1.64,6.46-1.64s4.74,.65,6.07,1.94c1.33,1.3,1.99,3.4,1.99,6.3v11.57c0,1.47,.17,2.46,.52,2.97,.34,.52,.83,.77,1.45,.77,.41,0,.77-.09,1.08-.26,.31-.17,.66-.46,1.03-.87l.75,.7c-.5,.81-1.1,1.41-1.8,1.8-.7,.39-1.51,.59-2.41,.59Z"/>
        <path class="cls-3" d="M56.71,81.86c-2.34,0-4.22-.27-5.64-.82-1.42-.55-2.46-1.28-3.12-2.2-.66-.92-.98-1.98-.98-3.16,0-1.47,.52-2.72,1.57-3.75,1.05-1.03,2.6-1.95,4.66-2.76l.23,.42c-1.22,.91-2.11,1.75-2.67,2.53-.56,.78-.84,1.75-.84,2.9,0,1.69,.6,2.97,1.8,3.84,1.2,.87,2.9,1.31,5.08,1.31,3.28,0,5.75-.57,7.4-1.71,1.65-1.14,2.48-2.55,2.48-4.24,0-1.06-.38-1.98-1.12-2.74-.75-.77-2.11-1.15-4.08-1.15h-5.76c-.72,0-1.36-.02-1.92-.05-.56-.03-1.09-.13-1.59-.28v-.14c-2.4-.59-3.61-1.97-3.61-4.12,0-1,.3-1.95,.91-2.86,.61-.91,1.62-1.91,3.02-3v-.42l1.08,.56c-.81,.84-1.41,1.56-1.8,2.16-.39,.59-.59,1.28-.59,2.06s.28,1.47,.84,1.97c.56,.5,1.48,.75,2.76,.75h6.84c1.9,0,3.47,.24,4.71,.73,1.23,.49,2.15,1.2,2.74,2.13,.59,.94,.89,2.06,.89,3.37,0,1.44-.51,2.82-1.52,4.15-1.02,1.33-2.51,2.41-4.5,3.26-1.98,.84-4.41,1.26-7.28,1.26Zm.56-20.33c-1.87,0-3.5-.35-4.87-1.05-1.37-.7-2.43-1.68-3.16-2.93-.73-1.25-1.1-2.7-1.1-4.36,0-2.53,.82-4.56,2.46-6.09,1.64-1.53,3.88-2.29,6.72-2.29,1.44,0,2.73,.2,3.89,.61,1.16,.41,2.11,1,2.86,1.78l.14,.09c1.5,1.44,2.25,3.4,2.25,5.9,0,1.66-.37,3.11-1.12,4.36-.75,1.25-1.81,2.23-3.19,2.93-1.37,.7-3,1.05-4.87,1.05Zm0-1.41c1.69,0,3.04-.64,4.08-1.92s1.55-2.97,1.55-5.06-.52-3.77-1.55-5.04c-1.03-1.27-2.37-1.9-4.03-1.9s-3.04,.64-4.05,1.92c-1.02,1.28-1.52,2.97-1.52,5.06s.5,3.77,1.5,5.04c1,1.26,2.34,1.9,4.03,1.9Zm5.39-12.32v-.8h.28l6.51-2.01,.8,.51v2.53l-7.59-.23Z"/>
        <path class="cls-3" d="M79.76,70.38c-1.87,0-3.42-.53-4.64-1.59-1.22-1.06-1.83-2.56-1.83-4.5,0-1.22,.26-2.3,.8-3.26,.53-.95,1.41-1.8,2.65-2.55,1.23-.75,2.88-1.42,4.94-2.01,1.31-.41,2.69-.8,4.12-1.17,1.44-.38,2.78-.7,4.03-.98v1.17c-1.25,.31-2.51,.65-3.79,1.01-1.28,.36-2.45,.74-3.51,1.15-2,.72-3.41,1.58-4.24,2.58-.83,1-1.24,2.16-1.24,3.47,0,1.44,.4,2.53,1.19,3.28,.8,.75,1.85,1.12,3.16,1.12,.72,0,1.42-.14,2.11-.42,.69-.28,1.47-.76,2.34-1.45,.87-.69,1.9-1.62,3.09-2.81l.42,2.2h-1.12c-.97,1.03-1.88,1.91-2.74,2.62-.86,.72-1.74,1.26-2.65,1.62-.91,.36-1.94,.54-3.09,.54Zm12.51-.05c-1.41,0-2.46-.48-3.16-1.43-.7-.95-1.1-2.26-1.19-3.91v-12.13c0-1.75-.19-3.1-.56-4.05-.38-.95-.95-1.62-1.73-1.99-.78-.37-1.8-.56-3.04-.56-.91,0-1.81,.13-2.72,.4-.91,.27-1.87,.68-2.9,1.24l2.01-1.26-.75,3.7c-.12,.84-.38,1.44-.77,1.78-.39,.34-.88,.51-1.48,.51-1.12,0-1.81-.56-2.06-1.69,.47-1.91,1.55-3.4,3.23-4.5,1.69-1.09,3.84-1.64,6.46-1.64s4.74,.65,6.07,1.94c1.33,1.3,1.99,3.4,1.99,6.3v11.57c0,1.47,.17,2.46,.52,2.97,.34,.52,.83,.77,1.45,.77,.41,0,.77-.09,1.08-.26,.31-.17,.66-.46,1.03-.87l.75,.7c-.5,.81-1.1,1.41-1.8,1.8-.7,.39-1.51,.59-2.41,.59Z"/>
      </g>
    </g>
  </g>
</svg>